<svg id="Component_19_1" data-name="Component 19 – 1" xmlns="http://www.w3.org/2000/svg" width="21.994" height="22" viewBox="0 0 21.994 22">
  <g id="Group_2154" data-name="Group 2154">
    <path id="Path_1337" data-name="Path 1337" d="M81,213.188q0-3.478,0-6.956A2.078,2.078,0,0,1,83.22,204q6.266,0,12.533,0a2.057,2.057,0,0,1,2.179,2.169c.005,2.9,0,3.809,0,6.714a.879.879,0,0,1-.859.99.857.857,0,0,1-.894-.848c-.011-.543,0-.087,0-.631,0-2.378,0-3.756,0-6.134,0-.424-.066-.49-.483-.49H83.237c-.411,0-.47.059-.47.472q0,6.93,0,13.861c0,.429.066.492.508.492H94.966a.88.88,0,0,1,.864.586.816.816,0,0,1-.245.945,1.111,1.111,0,0,1-.6.227c-3.651.009-7.3,0-10.953,0-.314,0-.628,0-.942,0A2.05,2.05,0,0,1,81,220.221Q80.994,216.7,81,213.188Z" transform="translate(-80.997 -203.998)" fill="#2ac770"/>
    <path id="Path_1338" data-name="Path 1338" d="M181.855,560.857h12.9c.452,0,.507-.056.507-.517,0-.263-.005-.527,0-.79a.861.861,0,0,1,.836-.857.845.845,0,0,1,.911.8,8.922,8.922,0,0,1,0,1.272,2.043,2.043,0,0,1-2.094,1.857c-1.129.007-2.258,0-3.387,0H181.135a.918.918,0,0,1-1.049-1.042c0-.408,0-.815,0-1.223a.886.886,0,1,1,1.769-.013C181.858,560.506,181.855,560.665,181.855,560.857Z" transform="translate(-175.037 -540.627)" fill="#2ac770"/>
    <path id="Path_1339" data-name="Path 1339" d="M301.579,419.714c-.493-.493-.936-.924-1.365-1.369a.875.875,0,0,1,.373-1.482.806.806,0,0,1,.826.2q1.466,1.45,2.917,2.917a.854.854,0,0,1,0,1.237q-1.438,1.461-2.9,2.9a.861.861,0,0,1-1.236-.009.873.873,0,0,1,0-1.238c.381-.4.778-.782,1.167-1.173.057-.058.111-.12.2-.222h-.32q-3.437,0-6.874,0a.874.874,0,0,1-.914-1.106.827.827,0,0,1,.691-.631,2.1,2.1,0,0,1,.38-.02h7.055Z" transform="translate(-282.6 -406.985)" fill="#2ac770"/>
    <path id="Path_1340" data-name="Path 1340" d="M143.281,276.483c-1.545,0-3.09,0-4.635,0a.878.878,0,1,1-.01-1.752c1.146,0,2.292,0,3.438,0q2.942,0,5.884,0a.872.872,0,0,1,.877,1.134.856.856,0,0,1-.816.615c-.416.012-.832,0-1.248,0Z" transform="translate(-134.824 -271.124)" fill="#2ac770"/>
    <path id="Path_1341" data-name="Path 1341" d="M142.494,361.013c-1.308,0-2.615,0-3.923,0a.872.872,0,0,1-.91-.939.857.857,0,0,1,.7-.8,1.627,1.627,0,0,1,.3-.028q3.86,0,7.719,0a.887.887,0,0,1,.985.843.869.869,0,0,1-.926.924C145.126,361.016,143.81,361.013,142.494,361.013Z" transform="translate(-134.773 -351.337)" fill="#2ac770"/>
    <path id="Path_1342" data-name="Path 1342" d="M436.867,265.1a2.9,2.9,0,0,1,0,.343.879.879,0,1,1-1.756,0c0-1.46,0-.92,0-2.38,0-.4-.07-.476-.471-.477-.306,0-.611.007-.917,0a.884.884,0,0,1-.918-.912.872.872,0,0,1,.946-.852,9.792,9.792,0,0,1,1.446.049,1.957,1.957,0,0,1,1.655,1.864c.034.788.007-.422.007.368Z" transform="translate(-414.883 -257.922)" fill="#2ac770"/>
    <path id="Path_1343" data-name="Path 1343" d="M140.754,446.144c-.73,0-1.459.007-2.189,0a.876.876,0,0,1-.3-1.692,1.2,1.2,0,0,1,.4-.065q2.1-.007,4.2,0a.884.884,0,1,1,0,1.762c-.7,0-1.409,0-2.113,0Z" transform="translate(-134.819 -432.136)" fill="#2ac770"/>
  </g>
</svg>
