<svg xmlns="http://www.w3.org/2000/svg" width="22" height="22" viewBox="0 0 22 22"><defs><style>.a{fill:none;}.b{opacity:0.9;}.c{fill:#849fbe;}</style></defs><g transform="translate(-1462 -94)"><rect class="a" width="22" height="22" transform="translate(1462 94)"/><g class="b" transform="translate(1461 93)"><g transform="translate(4 4)"><path class="c" d="M9.091,16H6.182A2.182,2.182,0,0,0,4,18.182v2.909a2.182,2.182,0,0,0,2.182,2.182H9.091a2.182,2.182,0,0,0,2.182-2.182V18.182A2.182,2.182,0,0,0,9.091,16Zm.727,5.091a.727.727,0,0,1-.727.727H6.182a.727.727,0,0,1-.727-.727V18.182a.727.727,0,0,1,.727-.727H9.091a.727.727,0,0,1,.727.727Z" transform="translate(-4 -7.273)"/><path class="c" d="M21.091,4H18.182A2.182,2.182,0,0,0,16,6.182V9.091a2.182,2.182,0,0,0,2.182,2.182h2.909a2.182,2.182,0,0,0,2.182-2.182V6.182A2.182,2.182,0,0,0,21.091,4Zm.727,5.091a.727.727,0,0,1-.727.727H18.182a.727.727,0,0,1-.727-.727V6.182a.727.727,0,0,1,.727-.727h2.909a.727.727,0,0,1,.727.727Z" transform="translate(-7.273 -4)"/><path class="c" d="M9.091,4H6.182A2.182,2.182,0,0,0,4,6.182V9.091a2.182,2.182,0,0,0,2.182,2.182H9.091a2.182,2.182,0,0,0,2.182-2.182V6.182A2.182,2.182,0,0,0,9.091,4Zm.727,5.091a.727.727,0,0,1-.727.727H6.182a.727.727,0,0,1-.727-.727V6.182a.727.727,0,0,1,.727-.727H9.091a.727.727,0,0,1,.727.727Z" transform="translate(-4 -4)"/><path class="c" d="M22.545,18.909H20.364V16.727a.727.727,0,0,0-1.455,0v2.182H16.727a.727.727,0,0,0,0,1.455h2.182v2.182a.727.727,0,0,0,1.455,0V20.364h2.182a.727.727,0,0,0,0-1.455Z" transform="translate(-7.273 -7.273)"/></g></g></g></svg>