<svg id="delete_1_" data-name="delete (1)" xmlns="http://www.w3.org/2000/svg" width="20.506" height="22" viewBox="0 0 20.506 22">
  <g id="Group_2141" data-name="Group 2141" transform="translate(0 3.303)">
    <g id="Group_2140" data-name="Group 2140">
      <g id="Group_2139" data-name="Group 2139">
        <path id="Path_1332" data-name="Path 1332" d="M306.9,175.119l-1.722-.063-.373,10.2,1.722.063Z" transform="translate(-292.457 -170.837)" fill="#657e9b"/>
        <rect id="Rectangle_547" data-name="Rectangle 547" width="1.723" height="10.196" transform="translate(9.392 4.251)" fill="#657e9b"/>
        <path id="Path_1333" data-name="Path 1333" d="M160.514,185.245l-.373-10.2-1.722.063.373,10.2Z" transform="translate(-152.359 -170.83)" fill="#657e9b"/>
        <path id="Path_1334" data-name="Path 1334" d="M17.379,76.867V78.59h1.8L20.6,94.778a.861.861,0,0,0,.858.786H33.778a.861.861,0,0,0,.858-.786L36.061,78.59h1.825V76.867Zm15.61,16.974H22.246L20.9,78.59H34.331Z" transform="translate(-17.379 -76.867)" fill="#657e9b"/>
      </g>
    </g>
  </g>
  <g id="Group_2143" data-name="Group 2143" transform="translate(6.002)">
    <g id="Group_2142" data-name="Group 2142">
      <path id="Path_1335" data-name="Path 1335" d="M164.141,0h-5.629a1.438,1.438,0,0,0-1.436,1.436V4.164H158.8V1.723h5.055V4.164h1.723V1.436A1.438,1.438,0,0,0,164.141,0Z" transform="translate(-157.076)" fill="#657e9b"/>
    </g>
  </g>
</svg>
