<svg xmlns="http://www.w3.org/2000/svg" width="14" height="14" viewBox="0 0 14 14">
  <g id="Group_2018" data-name="Group 2018" transform="translate(-675.149 -376.956)">
    <path id="Path_1326" data-name="Path 1326" d="M682.149,376.956a7,7,0,1,0,7,7A7.007,7.007,0,0,0,682.149,376.956Zm0,13.067a6.067,6.067,0,1,1,6.067-6.067A6.074,6.074,0,0,1,682.149,390.023Z" transform="translate(0)" fill="#2d76de"/>
    <g id="Group_2039" data-name="Group 2039" transform="translate(0 0.866)">
      <path id="Path_1327" data-name="Path 1327" d="M682.291,386.779h-.021a1,1,0,0,0-.7.287.946.946,0,0,0-.291.692.976.976,0,0,0,.282.719.986.986,0,0,0,.7.3h.026a.977.977,0,0,0,.709-.3,1.027,1.027,0,0,0,0-1.406A.988.988,0,0,0,682.291,386.779Z" transform="translate(-0.124 -7.557)" fill="#2d76de"/>
      <rect id="Rectangle_536" data-name="Rectangle 536" width="2" height="5" rx="1" transform="translate(681.149 381.955)" fill="#2d76de"/>
    </g>
  </g>
</svg>
