<svg xmlns="http://www.w3.org/2000/svg" width="22" height="22" viewBox="0 0 22 22">
  <g id="Group_731" data-name="Group 731" transform="translate(-1462 -94)">
    <rect id="Rectangle_182" data-name="Rectangle 182" width="22" height="22" transform="translate(1462 94)" fill="none"/>
    <g id="Group_829" data-name="Group 829" transform="translate(926.761 -160.843)" opacity="0.9">
      <path id="Path_823" data-name="Path 823" d="M549.428,266.979h-6.169a.707.707,0,0,0,0,1.414h6.169a.707.707,0,0,0,0-1.414Z" transform="translate(-0.043 -0.169)" fill="#7795b7"/>
      <path id="Path_824" data-name="Path 824" d="M549.915,257.843h-7.287a2.4,2.4,0,0,0-2.389,2.39v12.893a.707.707,0,0,0,.707.7.652.652,0,0,0,.442-.154l2.325-1.861,1.984,1.837a.708.708,0,0,0,.972-.011l1.9-1.838,2.6,1.9a.7.7,0,0,0,.421.139.709.709,0,0,0,.569-.286.717.717,0,0,0,.138-.423v-12.9A2.4,2.4,0,0,0,549.915,257.843Zm.973,2.389v11.507l-1.957-1.431a.707.707,0,0,0-.91.064l-1.853,1.786-1.938-1.8a.711.711,0,0,0-.924-.031l-1.652,1.323V260.231a.967.967,0,0,1,.974-.972h7.3a.949.949,0,0,1,.669.273A.966.966,0,0,1,550.888,260.232Z" fill="#7795b7"/>
      <path id="Path_825" data-name="Path 825" d="M543.259,262.684h2.8a.707.707,0,1,0,0-1.414h-2.8a.707.707,0,0,0,0,1.414Z" transform="translate(-0.043 -0.063)" fill="#7795b7"/>
      <path id="Path_826" data-name="Path 826" d="M549.428,264.124h-6.169a.707.707,0,0,0,0,1.414h6.169a.707.707,0,0,0,0-1.414Z" transform="translate(-0.043 -0.116)" fill="#7795b7"/>
    </g>
  </g>
</svg>
