<svg xmlns="http://www.w3.org/2000/svg" width="22" height="22" viewBox="0 0 22 22"><defs><style>.a{fill:none;}.b{opacity:0.9;}.c{fill:#fff;fill-rule:evenodd;}</style></defs><g transform="translate(-1503 -187)"><rect class="a" width="22" height="22" transform="translate(1503 187)"/><g class="b" transform="translate(465.176 -142.617)"><path class="c" d="M1042.626,338.308a1.846,1.846,0,1,0-1.847-1.845A1.829,1.829,0,0,0,1042.626,338.308Z" transform="translate(0.892)"/><path class="c" d="M1044.818,338.846a2.254,2.254,0,0,1,.42-.2,1.849,1.849,0,0,1,.292-.085,1.12,1.12,0,1,0-2.011-.969,3.185,3.185,0,0,1-2.112-.8l-.2-.035-.222.052a1.042,1.042,0,0,0-.215.1.975.975,0,0,0-.272.244,2.811,2.811,0,0,0-.342.626,4.691,4.691,0,0,0-.253.87,5.527,5.527,0,0,0-.073.841,2.852,2.852,0,0,0,.015.483.654.654,0,0,0,.1.28,1.143,1.143,0,0,0,.346.315,1.366,1.366,0,0,0,.557.186,8.54,8.54,0,0,0,.86.043l1.737,0c.06-.166.125-.333.2-.5a4.024,4.024,0,0,1,.588-.934A2.113,2.113,0,0,1,1044.818,338.846Z" transform="translate(0 2.005)"/><path class="c" d="M1045.616,340.394a2.36,2.36,0,1,0-2.359-2.361A2.363,2.363,0,0,0,1045.616,340.394Z" transform="translate(3.205 0.987)"/><path class="c" d="M1050.931,339.621a3.325,3.325,0,0,0-.412-.779,1.274,1.274,0,0,0-.367-.329,1.469,1.469,0,0,0-.3-.133,1.068,1.068,0,0,0-.362-.064l-.211.043a3.846,3.846,0,0,1-5.126.008l-.364-.05a1.437,1.437,0,0,0-.232.068,1.543,1.543,0,0,0-.284.131,1.246,1.246,0,0,0-.359.317,3.451,3.451,0,0,0-.422.8,5.844,5.844,0,0,0-.321,1.089,7.306,7.306,0,0,0-.089,1.038,3.638,3.638,0,0,0,.019.617.884.884,0,0,0,.147.387,1.458,1.458,0,0,0,.447.41,1.8,1.8,0,0,0,.721.242c.358.035.719.052,1.079.052h4.432c.362,0,.719-.017,1.075-.05a1.842,1.842,0,0,0,.725-.242,1.572,1.572,0,0,0,.445-.406.912.912,0,0,0,.149-.391,3.606,3.606,0,0,0,.017-.636,6.959,6.959,0,0,0-.085-1.013A5.775,5.775,0,0,0,1050.931,339.621Z" transform="translate(2.107 3.453)"/><path class="c" d="M1051.811,338.667a4.506,4.506,0,0,0-.263-.887,2.594,2.594,0,0,0-.331-.613,1.031,1.031,0,0,0-.491-.35l-.263-.05-.155.029a3.183,3.183,0,0,1-2.117.8,3.056,3.056,0,0,1-1.708-.5c0,.041,0,.081,0,.124a3.157,3.157,0,0,1-.3,1.34,1.906,1.906,0,0,1,.29.083,2.458,2.458,0,0,1,.412.2,1.978,1.978,0,0,1,.576.509,3.927,3.927,0,0,1,.6.955c.075.162.141.329.2.5l1.732,0a8.542,8.542,0,0,0,.861-.043,1.387,1.387,0,0,0,.563-.188,1.074,1.074,0,0,0,.334-.305.637.637,0,0,0,.106-.294,2.387,2.387,0,0,0,.016-.5A5.61,5.61,0,0,0,1051.811,338.667Z" transform="translate(5.94 2.006)"/><path class="c" d="M1048.121,338.312a1.848,1.848,0,1,0-1.852-1.849A1.833,1.833,0,0,0,1048.121,338.312Z" transform="translate(6.017)"/></g></g></svg>