<svg xmlns="http://www.w3.org/2000/svg" xmlns:xlink="http://www.w3.org/1999/xlink" width="22" height="22" viewBox="0 0 22 22">
  <defs>
    <clipPath id="clip-path">
      <rect id="Rectangle_577" data-name="Rectangle 577" width="16" height="15.697" fill="none"/>
    </clipPath>
  </defs>
  <g id="Group_731" data-name="Group 731" transform="translate(-1462 -94)">
    <rect id="Rectangle_182" data-name="Rectangle 182" width="22" height="22" transform="translate(1462 94)" fill="none"/>
    <g id="Group_2234" data-name="Group 2234" transform="translate(1465 97.15)" opacity="0.9">
      <g id="Group_2236" data-name="Group 2236" transform="translate(0 0.001)" clip-path="url(#clip-path)">
        <path id="Path_1344" data-name="Path 1344" d="M15.9,8.677,15.312,6.94q-.449-1.324-.893-2.646a1.978,1.978,0,0,1-.1-.58c-.01-.377-.014-.755-.018-1.135-.006-.531-.011-1.064-.032-1.586A.994.994,0,0,0,13.28,0,.552.552,0,0,0,13.2,0H3.026C2.072,0,1.711.361,1.693,1.32c-.007.383-.007.766-.008,1.149s0,.785-.008,1.179a2.373,2.373,0,0,1-.109.681c-.3.9-.6,1.793-.906,2.689L.1,8.672a1.626,1.626,0,0,0-.1.515c0,1.551,0,3.215.034,4.871A1.662,1.662,0,0,0,1.708,15.7H1.73q3.135.006,6.27,0h2.076c1.386,0,2.77,0,4.141,0,.037,0,.073,0,.109,0a1.647,1.647,0,0,0,1.645-1.712c.03-1.6.03-3.228.03-4.81a1.6,1.6,0,0,0-.1-.5m-3.1-.3H11.007c-.9.011-1.074.181-1.083,1.083l-.007.395c-.006.3-.011.6,0,.9,0,.037,0,.06,0,.071a.413.413,0,0,1-.068,0Q8.922,10.826,8,10.826t-1.842.009c-.031,0-.051,0-.063,0a.671.671,0,0,1,0-.077c.006-.432,0-.866-.012-1.3l0-.219c-.013-.613-.218-.825-.816-.843-.395-.012-.789-.014-1.186-.016l-.88,0L3.2,1.471h9.6Zm1.7,5.529c0,.275-.063.339-.339.339H1.8c-.291,0-.293-.159-.293-.238-.012-1.05-.01-2.1-.008-3.163V9.877H4.622v.261c0,.331,0,.656,0,.946a1.06,1.06,0,0,0,.91,1.189.841.841,0,0,0,.235,0c1.5.012,3,.013,4.481,0a1.041,1.041,0,0,0,1.128-.956.749.749,0,0,0,0-.163c0-.327,0-.653,0-.988V9.893h3.13q0,2.006-.016,4.012l.242,0H14.5Z" transform="translate(0 0)" fill="#7795b7"/>
        <path id="Path_1345" data-name="Path 1345" d="M4.512,3.369H8.876a.5.5,0,1,0,0-1H4.512a.5.5,0,1,0,0,1" transform="translate(-0.122 -0.072)" fill="#7795b7"/>
        <path id="Path_1346" data-name="Path 1346" d="M4.511,5.368h7.221a.5.5,0,0,0,0-1H4.511a.5.5,0,0,0,0,1" transform="translate(-0.122 -0.133)" fill="#7795b7"/>
        <path id="Path_1347" data-name="Path 1347" d="M11.738,6.365H4.516a.5.5,0,0,0,0,1H11.74a.5.5,0,0,0,.352-.144.5.5,0,0,0-.354-.858" transform="translate(-0.122 -0.193)" fill="#7795b7"/>
      </g>
    </g>
  </g>
</svg>
