<svg xmlns="http://www.w3.org/2000/svg" width="22" height="22" viewBox="0 0 22 22">
  <g id="Group_731" data-name="Group 731" transform="translate(-1462 -94)">
    <rect id="Rectangle_182" data-name="Rectangle 182" width="22" height="22" transform="translate(1462 94)" fill="none"/>
    <g id="Check_List" data-name="Check List" transform="translate(803.953 -224.175)" opacity="0.9">
      <path id="Path_816" data-name="Path 816" d="M667.349,323.3a.7.7,0,0,1,.7-.7h8.3a.7.7,0,0,1,0,1.4h-8.3A.7.7,0,0,1,667.349,323.3Zm-2.711-1.9-1.754,2.222-.545-.7a.7.7,0,1,0-1.186.738.674.674,0,0,0,.076.1l1.09,1.425a.7.7,0,0,0,.545.28h0a.7.7,0,0,0,.552-.266l2.312-2.934a.7.7,0,0,0-1.09-.867Zm11.711,6.792h-8.3a.7.7,0,1,0,0,1.4h8.3a.7.7,0,1,0,0-1.4Zm0,5.59h-8.3a.7.7,0,1,0,0,1.4h8.3a.7.7,0,1,0,0-1.4Zm-11.4-1.468h-2.935a.7.7,0,0,0-.7.7v2.935a.7.7,0,0,0,.7.7h2.935a.7.7,0,0,0,.7-.7v-2.935A.7.7,0,0,0,664.953,332.308Zm0-5.589h-2.935a.7.7,0,0,0-.7.7v2.935a.7.7,0,0,0,.7.7h2.935a.7.7,0,0,0,.7-.7v-2.935A.7.7,0,0,0,664.953,326.719Z" fill="#7795b7"/>
    </g>
  </g>
</svg>
