<svg xmlns="http://www.w3.org/2000/svg" width="22" height="22" viewBox="0 0 22 22">
  <g id="Group_2061" data-name="Group 2061" transform="translate(-1462 -94)">
    <rect id="Rectangle_182" data-name="Rectangle 182" width="22" height="22" transform="translate(1462 94)" fill="none"/>
    <g id="Group_1966" data-name="Group 1966" transform="translate(-3451.241 1148.723)" opacity="0.9">
      <path id="Path_1320" data-name="Path 1320" d="M20.418,76.629h-.606a.253.253,0,0,1-.253-.253v-.606a.371.371,0,0,0-.371-.371H18.7a.371.371,0,0,0-.371.371v.623a.253.253,0,0,1-.253.253h-.606a.371.371,0,0,0-.371.371v.488a.371.371,0,0,0,.371.354h.623a.253.253,0,0,1,.253.253v.623a.371.371,0,0,0,.371.371h.488a.371.371,0,0,0,.371-.371v-.623a.253.253,0,0,1,.236-.253h.623a.371.371,0,0,0,.354-.371V77A.371.371,0,0,0,20.418,76.629Z" transform="translate(4901.859 -1115.034)" fill="#7795b7"/>
      <path id="Path_1321" data-name="Path 1321" d="M28.712,2.5a4.312,4.312,0,1,0,4.312,4.312A4.312,4.312,0,0,0,28.712,2.5Zm0,7.377a3.082,3.082,0,1,1,3.082-3.065,3.082,3.082,0,0,1-3.082,3.065Z" transform="translate(4895.789 -1054.412)" fill="#7795b7"/>
      <path id="Path_1322" data-name="Path 1322" d="M14.188,55.1H12.976a.724.724,0,0,0-.707.522,1.853,1.853,0,0,1-3.537,0,.724.724,0,0,0-.707-.522H6.811A4.312,4.312,0,0,0,2.5,59.411V61.6a.64.64,0,0,0,.556.64.623.623,0,0,0,.674-.606V59.411a3.082,3.082,0,0,1,3.082-3.082h.64a.371.371,0,0,1,.32.2A3.082,3.082,0,0,0,9.22,57.9a1.112,1.112,0,0,1,.657,1.011v.455A2.021,2.021,0,0,0,11.9,61.382h.4a.371.371,0,0,1,.3.168,1.5,1.5,0,1,0,0-1.684.371.371,0,0,1-.3.168h-.421a.674.674,0,0,1-.674-.674v-.488a1.1,1.1,0,0,1,.606-.994,3.082,3.082,0,0,0,1.4-1.347.371.371,0,0,1,.32-.2h.64a3.082,3.082,0,0,1,3.1,3.082V61.6a.64.64,0,0,0,.556.64.623.623,0,0,0,.674-.606V59.411A4.312,4.312,0,0,0,14.188,55.1Z" transform="translate(4914 -1098.152)" fill="#7795b7"/>
    </g>
  </g>
</svg>
