<svg xmlns="http://www.w3.org/2000/svg" width="13.308" height="13.308" viewBox="0 0 13.308 13.308"><defs><style>.a{fill:#707070;}</style></defs><path class="a" d="M11.882,1.426H10.456V.475a.475.475,0,1,0-.951,0v.951H3.8V.475a.475.475,0,1,0-.951,0v.951H1.426A1.426,1.426,0,0,0,0,2.852v9.03a1.426,1.426,0,0,0,1.426,1.426H11.882a1.426,1.426,0,0,0,1.426-1.426V2.852A1.426,1.426,0,0,0,11.882,1.426Zm.475,10.456a.475.475,0,0,1-.475.475H1.426a.475.475,0,0,1-.475-.475V5.7H12.357Zm0-7.129H.951v-1.9a.475.475,0,0,1,.475-.475H2.852v.951a.475.475,0,0,0,.951,0V2.376h5.7v.951a.475.475,0,1,0,.951,0V2.376h1.426a.475.475,0,0,1,.475.475v1.9Z"/><rect class="a" width="2" height="2" transform="translate(2.653 6.455)"/><rect class="a" width="2" height="2" transform="translate(2.653 9.455)"/><rect class="a" width="2" height="2" transform="translate(5.653 6.455)"/><rect class="a" width="2" height="2" transform="translate(5.653 9.455)"/><rect class="a" width="2" height="2" transform="translate(8.653 6.455)"/><rect class="a" width="2" height="2" transform="translate(8.653 9.455)"/></svg>