<svg id="Component_28_2" data-name="Component 28 – 2" xmlns="http://www.w3.org/2000/svg" xmlns:xlink="http://www.w3.org/1999/xlink" width="24" height="24" viewBox="0 0 24 24">
  <defs>
    <clipPath id="clip-path">
      <rect id="Rectangle_571" data-name="Rectangle 571" width="24" height="24" transform="translate(-1.568 -1)" fill="#fff" stroke="#707070" stroke-width="1"/>
    </clipPath>
    <clipPath id="clip-path-2">
      <rect id="Rectangle_570" data-name="Rectangle 570" width="23.432" height="22.844" fill="#4d6480"/>
    </clipPath>
  </defs>
  <g id="Mask_Group_19" data-name="Mask Group 19" transform="translate(1.568 1)" clip-path="url(#clip-path)">
    <g id="Group_2212" data-name="Group 2212" transform="translate(-1)" clip-path="url(#clip-path-2)">
      <path id="Path_1337" data-name="Path 1337" d="M0,12.066v-9.7a.192.192,0,0,0,.035-.056A2.685,2.685,0,0,1,2.8.005q8.042-.011,16.083,0a2.682,2.682,0,0,1,2.786,2.787q.016,4.415,0,8.831a9.33,9.33,0,0,1-.1.941c-.12-.1-.184-.155-.245-.209-.553-.491-1.1-.987-1.659-1.474a1.762,1.762,0,0,0-1.667-.374.3.3,0,0,1-.336-.088q-1.52-1.57-3.051-3.129c-.042-.043-.079-.09-.13-.148l6.022-4.7a.386.386,0,0,0-.228.059Q15.665,4.99,11.062,7.478a.417.417,0,0,1-.456,0q-4.621-2.5-9.249-4.993c-.074-.04-.149-.077-.223-.115L1.115,2.4,7.2,7.149,2.17,12.3l.03.033L8.346,7.945c.775.5,1.532.99,2.279,1.489a.32.32,0,0,0,.419,0c.753-.5,1.516-.992,2.28-1.49l4.047,2.892c-.8.619-.663,1.488-.67,2.3-.046.013-.067.021-.089.025a7.706,7.706,0,0,0-3.17,1.227.4.4,0,0,1-.214.055c-3.531,0-7.062.011-10.593-.006a2.492,2.492,0,0,1-2.227-1.3A6.566,6.566,0,0,1,0,12.066" transform="translate(0 0)" fill="#4d6480"/>
      <path id="Path_1338" data-name="Path 1338" d="M247.283,268.107a10.1,10.1,0,0,1,1.427-5.86,5.605,5.605,0,0,1,3.819-2.44c.477-.086.965-.116,1.476-.175,0-.069,0-.151,0-.233q0-.938,0-1.876a.423.423,0,0,1,.236-.433.434.434,0,0,1,.5.1q2.22,1.977,4.441,3.955a.428.428,0,0,1,.005.709q-2.209,1.99-4.423,3.975a.46.46,0,0,1-.522.121.447.447,0,0,1-.241-.476q0-.938,0-1.876c0-.081-.007-.163-.013-.288-.766.044-1.51.073-2.252.134a4.808,4.808,0,0,0-1.712.456,4.111,4.111,0,0,0-1.785,1.777,10.969,10.969,0,0,0-.895,2.219l-.065.211" transform="translate(-235.945 -245.263)" fill="#ff9f43"/>
    </g>
  </g>
</svg>
