<svg xmlns="http://www.w3.org/2000/svg" width="13" height="13" viewBox="0 0 13 13"><defs><style>.a{fill:#2d76de;}</style></defs><g transform="translate(-675.149 -376.956)"><path class="a" d="M681.649,376.956a6.5,6.5,0,1,0,6.5,6.5A6.507,6.507,0,0,0,681.649,376.956Zm0,12.133a5.633,5.633,0,1,1,5.633-5.633A5.64,5.64,0,0,1,681.649,389.089Z" transform="translate(0)"/><path class="a" d="M682.448,386.779h-.024a1.158,1.158,0,0,0-1.15,1.167,1.185,1.185,0,0,0,.326.858,1.122,1.122,0,0,0,.814.36.3.3,0,0,1,.03,0,1.112,1.112,0,0,0,.819-.36,1.254,1.254,0,0,0-.005-1.677A1.123,1.123,0,0,0,682.448,386.779Z" transform="translate(-0.965 -1.557)"/><path class="a" d="M682.711,379.752a2.976,2.976,0,0,0-2.088.73,2.742,2.742,0,0,0-.837,2.018l.008.484,1.9.03-.009-.517a.767.767,0,0,1,.216-.558,1.034,1.034,0,0,1,.723-.216,1,1,0,0,1,.642.173.585.585,0,0,1,.187.5.87.87,0,0,1-.117.482,3.916,3.916,0,0,1-.6.642,7.055,7.055,0,0,0-.6.6,2.548,2.548,0,0,0-.444.743,2.723,2.723,0,0,0-.176,1.027l.01.49h1.874l-.008-.508a1.113,1.113,0,0,1,.094-.472,1.464,1.464,0,0,1,.238-.372,6.174,6.174,0,0,1,.5-.475,8.493,8.493,0,0,0,.626-.589,2.476,2.476,0,0,0,.661-1.715,2.28,2.28,0,0,0-.834-1.886A3.139,3.139,0,0,0,682.711,379.752Z" transform="translate(-1 -0.667)"/></g></svg>