<svg xmlns="http://www.w3.org/2000/svg" width="24.289" height="20" viewBox="0 0 24.289 20">
  <path id="message" d="M112.341,17.977H98.014a4.986,4.986,0,0,0-4.981,4.981v7.693a4.9,4.9,0,0,0,3.521,4.711l2.406,2.406a.712.712,0,0,0,1.006,0l2.207-2.207h10.168a4.987,4.987,0,0,0,4.981-4.981V22.958A4.986,4.986,0,0,0,112.341,17.977ZM98.272,28.619a.94.94,0,0,1,.94-.94h11.932a.941.941,0,0,1,0,1.882H99.215a.94.94,0,0,1-.94-.94h0Zm12.872-3.047H99.215a.941.941,0,0,1,0-1.881h11.929a.941.941,0,0,1,0,1.881Z" transform="translate(-93.033 -17.977)" fill="#7795B7"/>
</svg>
