<svg xmlns="http://www.w3.org/2000/svg" width="34" height="34" viewBox="0 0 34 34"><defs><style>.a{fill:#fceaea;}.b{fill:#ea5455;}</style></defs><g transform="translate(-105 -163)"><circle class="a" cx="17" cy="17" r="17" transform="translate(105 163)"/><path class="b" d="M679.778,327.242a2.045,2.045,0,0,0-1.887-1.592l-.072-.008c0-.018,0-.043,0-.077v-1.233a20.239,20.239,0,0,0-.039-2.117,5.24,5.24,0,0,0-3.248-4.441,1.938,1.938,0,0,0-.887-1.816,4.064,4.064,0,0,0-.779-.316l-.034-.01-.453,0-.125.032a1.929,1.929,0,0,0-1.607,1.94,1,1,0,0,0,.014.14l0,.012-.03.01c-.041.014-.082.029-.111.042a5.124,5.124,0,0,0-3.166,4.827c-.017.726-.011,1.454-.005,2.184l.005.635a1.7,1.7,0,0,1-.006.18l-.157.018a1.99,1.99,0,0,0-1.233,3.465,1.932,1.932,0,0,0,1.423.511h2.768a2.472,2.472,0,0,0,1.791,1.914c.069.021.14.037.21.054l.709.033.118-.031a2.417,2.417,0,0,0,1.757-1.222,7.572,7.572,0,0,0,.315-.747l.9,0c.635,0,1.271,0,1.909,0a1.963,1.963,0,0,0,.367-.04A1.993,1.993,0,0,0,679.778,327.242Zm-10.946-2.748c0-.63-.006-1.26.006-1.9a3.641,3.641,0,0,1,1.747-3.137,3.693,3.693,0,0,1,3.433-.29,3.685,3.685,0,0,1,2,2.023,3.965,3.965,0,0,1,.32,1.613c0,.955,0,1.91,0,2.86a1.439,1.439,0,0,0,1.157,1.435,1.561,1.561,0,0,0,.228.026c.041,0,.081,0,.133.01a.507.507,0,0,1,.3.878.49.49,0,0,1-.374.133h-5.2c-1.721,0-3.446,0-5.188.007a.522.522,0,0,1-.495-.257.538.538,0,0,1-.06-.171.5.5,0,0,1,.09-.374.5.5,0,0,1,.334-.2,1.547,1.547,0,0,1,.167-.018,1.712,1.712,0,0,0,.24-.028,1.432,1.432,0,0,0,1.16-1.429C668.835,325.283,668.833,324.889,668.832,324.494Zm3.321-7.083a.408.408,0,0,1,.166-.209.461.461,0,0,1,.263-.083.477.477,0,0,1,.264.082.41.41,0,0,1,.166.209Zm1.294,12.233a.99.99,0,0,1-1.408.337.978.978,0,0,1-.316-.337Zm.923-11.7-.01.027h0v-.029Z" transform="translate(-550.301 -143.632)"/></g></svg>