<svg xmlns="http://www.w3.org/2000/svg" width="18" height="18" viewBox="0 0 18 18">
  <g id="Polygon_14" data-name="Polygon 14" fill="none">
    <path d="M9,0l2.97,5.652L18,6.875l-4.194,4.717L14.562,18,9,15.263,3.438,18l.757-6.408L0,6.875,6.03,5.652Z" stroke="none"/>
    <path d="M 9 2.149749755859375 L 6.694299697875977 6.537520408630371 L 1.902400970458984 7.509775161743164 L 5.240220069885254 11.26308059692383 L 4.646496772766113 16.29070281982422 L 9 14.14855003356934 L 13.35349655151367 16.29070281982422 L 12.75977993011475 11.26308059692383 L 16.09759902954102 7.509775161743164 L 11.30570030212402 6.537520408630371 L 9 2.149749755859375 M 9 0 L 11.96999931335449 5.65192985534668 L 18 6.87539005279541 L 13.80556011199951 11.5919303894043 L 14.56229972839355 18 L 9 15.2630500793457 L 3.437689781188965 18 L 4.194439888000488 11.5919303894043 L 0 6.87539005279541 L 6.029999732971191 5.65192985534668 L 9 0 Z" stroke="none" fill="#707070"/>
  </g>
</svg>
