<svg xmlns="http://www.w3.org/2000/svg" width="17" height="15.677" viewBox="0 0 17 15.677">
  <g id="Group_2087" data-name="Group 2087" transform="translate(-597.768 -255.622)">
    <g id="Group_2087-2" data-name="Group 2087" transform="translate(597.768 255.622)">
      <path id="Path_1331" data-name="Path 1331" d="M597.768,263.038c.266.411.541.817.8,1.234.465.757.919,1.521,1.42,2.353l2.205-3.663h-1.4a5.324,5.324,0,0,1,.509-2.093,6.222,6.222,0,1,1,5.917,8.8c-.732.028-1.075.422-.91,1.042a.748.748,0,0,0,.861.584A7.62,7.62,0,0,0,614,266.805a14.133,14.133,0,0,0,.694-2.259c.023-.078.053-.155.08-.232v-1.7a1.827,1.827,0,0,1-.082-.274,7.824,7.824,0,0,0-15.215-1.236c-.18.589-.27,1.205-.41,1.85h-1.294Z" transform="translate(-597.768 -255.622)" fill="#fff"/>
      <path id="Path_1332" data-name="Path 1332" d="M677.652,296.885c0,.679.031,1.361-.015,2.037a1.363,1.363,0,0,1-.327.778c-.653.706-1.347,1.374-2.031,2.051a.764.764,0,0,1-1.158.1.787.787,0,0,1,.078-1.164c.557-.564,1.133-1.109,1.674-1.688a.957.957,0,0,0,.24-.583c.022-1.231,0-2.463.014-3.694a.749.749,0,0,1,1.033-.758.716.716,0,0,1,.493.757C677.648,295.442,677.652,296.163,677.652,296.885Z" transform="translate(-667.427 -290.654)" fill="#fff"/>
    </g>
  </g>
</svg>
