<svg xmlns="http://www.w3.org/2000/svg" width="34" height="34" viewBox="0 0 34 34"><defs><style>.a{fill:#fff3e8;}.b{opacity:0.9;}.c{fill:#ff9f43;}</style></defs><g transform="translate(-467 -163)"><circle class="a" cx="17" cy="17" r="17" transform="translate(467 163)"/><g class="b" transform="translate(-185.047 -149.175)"><path class="c" d="M667.349,323.3a.7.7,0,0,1,.7-.7h8.3a.7.7,0,0,1,0,1.4h-8.3A.7.7,0,0,1,667.349,323.3Zm-2.711-1.9-1.754,2.222-.545-.7a.7.7,0,1,0-1.186.738.674.674,0,0,0,.076.1l1.09,1.425a.7.7,0,0,0,.545.28h0a.7.7,0,0,0,.552-.266l2.312-2.934a.7.7,0,0,0-1.09-.867Zm11.711,6.792h-8.3a.7.7,0,1,0,0,1.4h8.3a.7.7,0,1,0,0-1.4Zm0,5.59h-8.3a.7.7,0,1,0,0,1.4h8.3a.7.7,0,1,0,0-1.4Zm-11.4-1.468h-2.935a.7.7,0,0,0-.7.7v2.935a.7.7,0,0,0,.7.7h2.935a.7.7,0,0,0,.7-.7v-2.935A.7.7,0,0,0,664.953,332.308Zm0-5.589h-2.935a.7.7,0,0,0-.7.7v2.935a.7.7,0,0,0,.7.7h2.935a.7.7,0,0,0,.7-.7v-2.935A.7.7,0,0,0,664.953,326.719Z"/></g></g></svg>