<svg xmlns="http://www.w3.org/2000/svg" width="29.483" height="32.929" viewBox="0 0 29.483 32.929"><defs><style>.a,.b{fill:#bac529;}.b{mix-blend-mode:multiply;isolation:isolate;}.c{fill:#fff;}</style></defs><g transform="translate(-668.258 -367.721)"><path class="a" d="M683.017,371.007a51.412,51.412,0,0,1-6.182,2.637,35.442,35.442,0,0,1-5.374,1.393c.069,6.822,1.806,12.486,5.167,16.838a22.412,22.412,0,0,0,6.387,5.572,22.865,22.865,0,0,0,6.391-5.574c3.361-4.32,5.1-9.984,5.166-16.841a37.132,37.132,0,0,1-5.369-1.391A53.452,53.452,0,0,1,683.017,371.007Z"/><path class="a" d="M696.585,372.3a29.461,29.461,0,0,1-6.214-1.444,49.023,49.023,0,0,1-6.717-2.956,1.3,1.3,0,0,0-1.31,0,44.537,44.537,0,0,1-6.684,2.922,32.215,32.215,0,0,1-6.213,1.445,1.325,1.325,0,0,0-1.175,1.209c-.2,8.128,1.747,14.879,5.777,20.085a25.574,25.574,0,0,0,8.3,6.919,1.058,1.058,0,0,0,.672.168,1.81,1.81,0,0,0,.705-.168,25.983,25.983,0,0,0,8.262-6.919c3.993-5.139,5.941-11.89,5.739-20.052A1.263,1.263,0,0,0,696.585,372.3Zm-6.39,20.189,0,0a23.881,23.881,0,0,1-6.929,5.969.5.5,0,0,1-.248.065.49.49,0,0,1-.246-.065,23.392,23.392,0,0,1-6.931-5.97c-3.57-4.623-5.38-10.636-5.38-17.873a.5.5,0,0,1,.419-.493,34.4,34.4,0,0,0,5.628-1.424,50.423,50.423,0,0,0,6.282-2.7.5.5,0,0,1,.455,0,52.561,52.561,0,0,0,6.288,2.7,36.161,36.161,0,0,0,5.626,1.423.5.5,0,0,1,.417.493C695.574,381.886,693.765,387.9,690.2,392.487Z"/><path class="b" d="M691.6,378.274l.034.069a.644.644,0,0,1-.17.792,36.6,36.6,0,0,0-8.212,11.471.7.7,0,0,1-.477.448.374.374,0,0,1-.17.035.724.724,0,0,1-.507-.241l-6.063-6.235a.542.542,0,0,1-.059-.059.452.452,0,0,1,.059-.63,10.471,10.471,0,0,1,1.022-.964c.817-.689,1.09-.965,1.464-.689l2.963,2.376a40.745,40.745,0,0,1,8.754-7.509C690.678,376.861,690.951,377.24,691.6,378.274Z" transform="translate(0 0.292)"/><path class="c" d="M691.379,378.243l.034.067a.623.623,0,0,1-.168.772,35.7,35.7,0,0,0-8.1,11.184.685.685,0,0,1-.47.437.372.372,0,0,1-.168.034.717.717,0,0,1-.5-.235l-5.979-6.079a.526.526,0,0,1-.058-.058.437.437,0,0,1,.058-.614,10.283,10.283,0,0,1,1.008-.94c.806-.672,1.075-.941,1.444-.672l2.922,2.317a40.057,40.057,0,0,1,8.632-7.321C690.472,376.866,690.741,377.235,691.379,378.243Z"/></g></svg>