<svg xmlns="http://www.w3.org/2000/svg" width="353.749" height="125.16" viewBox="0 0 353.749 125.16"><defs><style>.a,.d{fill:#005383;}.b,.c{fill:#bac529;}.c,.d{fill-rule:evenodd;}</style></defs><g transform="translate(-535 -332)"><path class="a" d="M676.575,410.746l-14.114-19.79a19.461,19.461,0,0,0,5.041-2.127,15.5,15.5,0,0,0,3.921-3.362A15.136,15.136,0,0,0,674,380.913a18.626,18.626,0,0,0-.41-12.77,14.175,14.175,0,0,0-3.846-5.228,17.592,17.592,0,0,0-6.125-3.286,26.533,26.533,0,0,0-8.1-1.158h-23.3v52.274H641.4V392.526h11.5l12.845,18.221ZM665.6,375.574A7.879,7.879,0,0,1,662.686,382a12,12,0,0,1-7.842,2.389H641.4V366.837h13.367q5.152,0,7.991,2.2a7.764,7.764,0,0,1,2.838,6.535Z" transform="translate(19.205 5.23)"/><path class="a" d="M724.573,384.536a26.235,26.235,0,0,0-2.017-10.306,24.325,24.325,0,0,0-5.712-8.29,26.577,26.577,0,0,0-8.812-5.488,30.9,30.9,0,0,0-11.239-1.98H677.3v52.274h19.491a30.383,30.383,0,0,0,11.239-2.015,27.076,27.076,0,0,0,8.812-5.526,24.254,24.254,0,0,0,5.712-8.327,26.506,26.506,0,0,0,2.017-10.343Zm-9.633.148a18.917,18.917,0,0,1-1.307,7.132,16.559,16.559,0,0,1-3.66,5.6,16.335,16.335,0,0,1-5.712,3.658,20.462,20.462,0,0,1-7.468,1.307h-10.3V366.837h10.3a19.95,19.95,0,0,1,7.468,1.344,16.477,16.477,0,0,1,5.712,3.734,16.971,16.971,0,0,1,3.66,5.639,18.917,18.917,0,0,1,1.307,7.13Z" transform="translate(28.112 5.23)"/><path class="a" d="M726.5,358.472v52.274h9.186V358.472Z" transform="translate(37.832 5.23)"/><path class="a" d="M838.277,402.53l-5.9-5.973a32.347,32.347,0,0,1-6.8,4.966,17.256,17.256,0,0,1-8.214,1.83,16.375,16.375,0,0,1-6.908-1.456,16.9,16.9,0,0,1-5.49-4,18.115,18.115,0,0,1-3.583-5.938,20.589,20.589,0,0,1-1.271-7.28,20.29,20.29,0,0,1,1.271-7.244,17.786,17.786,0,0,1,3.583-5.863,17.143,17.143,0,0,1,5.49-3.957,16.356,16.356,0,0,1,6.908-1.456,17.308,17.308,0,0,1,7.991,1.792,29.536,29.536,0,0,1,6.645,4.7l5.9-6.794a35.806,35.806,0,0,0-3.958-3.287A25.341,25.341,0,0,0,829.389,360a26.463,26.463,0,0,0-5.414-1.68,32.96,32.96,0,0,0-6.532-.6,27.22,27.22,0,0,0-10.9,2.129,26.013,26.013,0,0,0-14.076,14.45,28.914,28.914,0,0,0,.037,21.133,26.3,26.3,0,0,0,5.563,8.551,26.023,26.023,0,0,0,8.4,5.713,26.513,26.513,0,0,0,10.6,2.091,32.5,32.5,0,0,0,6.682-.635,23.945,23.945,0,0,0,5.565-1.867,27.9,27.9,0,0,0,4.743-2.913,33.835,33.835,0,0,0,4.219-3.846Z" transform="translate(50.471 5.082)"/><path class="b" d="M640.843,425.207V439.52h3.507V419.561h-3.735L634.543,429l-6.074-9.438h-3.734V439.52h3.45V425.264l6.244,9.352h.115l6.3-9.409Z" transform="translate(17.727 17.298)"/><path class="b" d="M668.251,429.512a10.029,10.029,0,0,0-.77-3.935,9.327,9.327,0,0,0-2.181-3.165,10.14,10.14,0,0,0-3.365-2.094,11.783,11.783,0,0,0-4.291-.757H650.2v19.958h7.442a11.608,11.608,0,0,0,4.291-.769,10.328,10.328,0,0,0,3.365-2.11,9.262,9.262,0,0,0,2.181-3.179,10.127,10.127,0,0,0,.77-3.948Zm-3.678.056a7.212,7.212,0,0,1-.5,2.723,6.31,6.31,0,0,1-1.4,2.139,6.211,6.211,0,0,1-2.181,1.4,7.8,7.8,0,0,1-2.851.5H653.71V422.755h3.934a7.6,7.6,0,0,1,2.851.514,6.274,6.274,0,0,1,2.181,1.425,6.473,6.473,0,0,1,1.4,2.153,7.21,7.21,0,0,1,.5,2.722Z" transform="translate(22.759 17.298)"/><path class="b" d="M698.276,436.383l-2.251-2.28a12.37,12.37,0,0,1-2.6,1.9,6.582,6.582,0,0,1-3.136.7,6.262,6.262,0,0,1-2.637-.556,6.447,6.447,0,0,1-2.1-1.526,6.908,6.908,0,0,1-1.37-2.267,7.885,7.885,0,0,1-.483-2.78,7.779,7.779,0,0,1,.483-2.766,6.776,6.776,0,0,1,1.37-2.237,6.545,6.545,0,0,1,2.1-1.511,6.258,6.258,0,0,1,2.637-.556,6.611,6.611,0,0,1,3.051.684,11.218,11.218,0,0,1,2.536,1.795l2.254-2.594a13.579,13.579,0,0,0-1.512-1.254,9.738,9.738,0,0,0-1.738-.984,10.134,10.134,0,0,0-2.068-.642,12.59,12.59,0,0,0-2.5-.228,10.408,10.408,0,0,0-4.163.813,9.94,9.94,0,0,0-5.375,5.516,10.714,10.714,0,0,0-.755,4.02,10.585,10.585,0,0,0,.77,4.049,10.065,10.065,0,0,0,2.125,3.266,9.941,9.941,0,0,0,3.208,2.18,10.123,10.123,0,0,0,4.048.8,12.426,12.426,0,0,0,2.552-.242,9.159,9.159,0,0,0,2.125-.712,10.708,10.708,0,0,0,1.811-1.112,12.742,12.742,0,0,0,1.61-1.468Zm28.848-6.814a10.425,10.425,0,0,0-.77-3.991,9.9,9.9,0,0,0-5.417-5.488,10.686,10.686,0,0,0-4.22-.813,10.409,10.409,0,0,0-7.527,3.066,10.027,10.027,0,0,0-2.167,3.292,10.726,10.726,0,0,0,0,7.984,9.9,9.9,0,0,0,5.417,5.489,10.68,10.68,0,0,0,4.22.812,10.4,10.4,0,0,0,7.526-3.064,10.008,10.008,0,0,0,2.167-3.293,10.433,10.433,0,0,0,.77-3.991Zm-3.677.056a7.611,7.611,0,0,1-.5,2.752,6.969,6.969,0,0,1-1.383,2.252,6.462,6.462,0,0,1-2.125,1.511,6.7,6.7,0,0,1-7.613-1.554,7.021,7.021,0,0,1-1.4-2.266,7.83,7.83,0,0,1,0-5.5,6.957,6.957,0,0,1,1.383-2.251,6.448,6.448,0,0,1,2.125-1.511,6.7,6.7,0,0,1,7.612,1.553,7,7,0,0,1,1.4,2.267,7.608,7.608,0,0,1,.5,2.751Zm27.621,3.792-10.692-13.8h-3.25v19.958h3.449v-14.2l11,14.2h2.938V419.617h-3.45v13.8Zm28.276,0-10.691-13.8H765.4v19.958h3.449v-14.2l11.007,14.2h2.936V419.617h-3.45v13.8Zm29.133-13.8h-14.8v19.958h14.939v-3.136H797.185V431.08h10.008v-3.137H797.185v-5.189h11.292v-3.136ZM835.9,436.383l-2.251-2.28a12.446,12.446,0,0,1-2.6,1.9,6.583,6.583,0,0,1-3.137.7,6.258,6.258,0,0,1-2.637-.556,6.446,6.446,0,0,1-2.1-1.526,6.912,6.912,0,0,1-1.368-2.267,7.875,7.875,0,0,1-.485-2.78,7.769,7.769,0,0,1,.485-2.766,6.781,6.781,0,0,1,1.368-2.237,6.543,6.543,0,0,1,2.1-1.511,6.254,6.254,0,0,1,2.637-.556,6.612,6.612,0,0,1,3.05.684,11.239,11.239,0,0,1,2.538,1.795l2.252-2.594a13.345,13.345,0,0,0-1.511-1.254,9.713,9.713,0,0,0-1.739-.984,10.144,10.144,0,0,0-2.067-.642,12.594,12.594,0,0,0-2.494-.228,10.393,10.393,0,0,0-4.163.813,9.947,9.947,0,0,0-5.375,5.516,11.055,11.055,0,0,0,.013,8.069,10.076,10.076,0,0,0,2.125,3.266,9.953,9.953,0,0,0,3.207,2.18,10.136,10.136,0,0,0,4.049.8,12.409,12.409,0,0,0,2.551-.242,9.128,9.128,0,0,0,2.125-.712,10.651,10.651,0,0,0,1.811-1.112,12.816,12.816,0,0,0,1.611-1.468Zm17.871-13.514h6.33v-3.251H843.9v3.251h6.33v16.707h3.536V422.869Z" transform="translate(28.651 17.242)"/><path class="c" d="M605.173,363.329l-6.74,15.427c.385.354.74.677,1.064.967q2.678,2.413,5.451,4.712c1.154-2.7,2.559-5.988,4.333-10.129,4.827,11.174,6.944,16.087,8.681,20.178,1.029,2.426,1.925,4.563,3.172,7.544a253.114,253.114,0,0,1-24.52-19.1q-77.1-69.437,168.017-36.565Q533.7,310.093,568.875,365.422a67.77,67.77,0,0,0,5.841,7.749,159.541,159.541,0,0,0,18.434,17.682,418.525,418.525,0,0,0,33.83,25.123h9.709l-23-52.647Z" transform="translate(5.774)"/><path class="d" d="M595.205,390.069q-3.444-2.7-6.813-5.493l-9.18,21.013h9.409c3.275-7.688,5.141-12.1,6.584-15.52Z" transform="translate(8.734 10.387)"/><path class="d" d="M545.9,377.439a17.789,17.789,0,0,1,3.584-5.863,17.117,17.117,0,0,1,5.49-3.957,16.348,16.348,0,0,1,6.906-1.456,17.308,17.308,0,0,1,7.991,1.792,29.511,29.511,0,0,1,6.646,4.7l1.115-1.284c-.138-.159-.275-.317-.412-.477a71.5,71.5,0,0,1-6.212-8.246,44.651,44.651,0,0,1-2.433-4.313l-.086-.017a32.981,32.981,0,0,0-6.534-.6,27.223,27.223,0,0,0-10.9,2.129,26.032,26.032,0,0,0-14.076,14.45,28.942,28.942,0,0,0,.037,21.133,26.318,26.318,0,0,0,5.563,8.551,26.023,26.023,0,0,0,8.4,5.713,26.506,26.506,0,0,0,10.6,2.091,32.544,32.544,0,0,0,6.684-.635,23.951,23.951,0,0,0,5.563-1.867,27.935,27.935,0,0,0,4.743-2.913,33.835,33.835,0,0,0,4.219-3.846l-5.9-5.973a32.366,32.366,0,0,1-6.8,4.966,17.258,17.258,0,0,1-8.215,1.83,16.366,16.366,0,0,1-6.906-1.456,16.877,16.877,0,0,1-5.49-4,18.118,18.118,0,0,1-3.584-5.938,20.616,20.616,0,0,1-1.271-7.28,20.317,20.317,0,0,1,1.271-7.244Z" transform="translate(0 5.082)"/><path class="c" d="M535,426.617h92.132v3.059H535v-3.059Z" transform="translate(0 18.692)"/><path class="a" d="M773.761,358.161h-8.513l-23,52.648h9.409l5.377-12.621h24.718l5.3,12.621h9.708l-23-52.648Zm4.631,31.887h-18l8.961-20.911,9.037,20.911Z" transform="translate(40.943 5.168)"/></g></svg>